<?xml version="1.0" ?><!DOCTYPE svg  PUBLIC '-//W3C//DTD SVG 1.1//EN'  'http://www.w3.org/Graphics/SVG/1.1/DTD/svg11.dtd'><svg enable-background="new 0 0 512 512" height="512px" version="1.1" viewBox="0 0 512 512" width="512px" xml:space="preserve" xmlns="http://www.w3.org/2000/svg" xmlns:xlink="http://www.w3.org/1999/xlink"><g id="Layer_1"><path d="M504.272,7.951v496.49H9.392V7.951H504.272 M484.272,27.951H29.392v456.49h454.88V27.951z"/></g><g id="Layer_2"><g><path d="M84.8,112.58c18.138-3.3,42.725-5.775,75.775-5.775c36.275,0,62.474,7.837,79.804,22.686    c16.123,13.612,26.603,35.473,26.603,61.457c0,26.398-8.061,47.846-22.974,62.694c-20.153,20.211-50.785,30.112-85.852,30.112    c-9.27,0-17.331-0.414-24.183-2.064v104.145H84.8V112.58z M133.973,241.68c6.449,2.063,14.107,2.476,24.183,2.476    c37.082,0,59.653-18.974,59.653-51.146c0-30.934-20.959-47.021-55.219-47.021c-13.705,0-23.378,1.238-28.618,2.475V241.68z"/><path d="M292.561,334.678c10.883,7.011,32.246,14.848,49.979,14.848c21.766,0,31.438-7.418,31.438-20.617    c0-13.612-8.062-20.21-32.245-29.285c-38.29-13.2-54.009-34.646-54.009-58.569c0-35.473,28.617-62.695,74.163-62.695    c21.764,0,40.709,5.362,52.396,11.961l-10.077,35.472c-8.061-4.949-24.183-11.548-41.514-11.548    c-17.734,0-27.408,9.074-27.408,21.447c0,12.787,9.27,18.561,34.26,28.048c35.872,12.787,51.995,31.347,52.397,61.044    c0,36.711-27.813,61.04-79.806,61.04c-23.779,0-45.143-5.775-59.651-14.025L292.561,334.678z"/></g></g></svg>